<svg width="433" height="449" xmlns="http://www.w3.org/2000/svg"><g fill-rule="nonzero" fill="none"><path d="M432.655 216.808c0 119.243-96.603 215.847-215.846 215.847C97.566 432.655.963 336.051.963 216.808.963 97.569 97.566.966 216.809.966c119.243 0 215.846 96.603 215.846 215.842z" fill="#FFCE54" opacity=".5"/><path d="M404.675 216.808c0 103.7-84.089 187.866-187.866 187.866-103.778 0-187.866-84.166-187.866-187.866 0-103.699 84.088-187.862 187.866-187.862 103.778 0 187.866 84.163 187.866 187.862z" fill="#FFCE54" opacity=".4"/><path d="M376.695 216.808c0 88.227-71.551 159.886-159.886 159.886-88.336 0-159.886-71.659-159.886-159.886 0-88.226 71.55-159.882 159.886-159.882 88.335 0 159.886 71.657 159.886 159.882z" fill="#FFCE54" opacity=".6"/><path fill="#AAB2BD" d="M284.76 412.669l-15.988 15.988H164.846l-15.989-15.988v-55.96H284.76z"/><path fill="#FFF" opacity=".4" d="M164.846 356.709h-15.989v55.96l15.989 15.988h15.989l-15.989-15.988z"/><path fill="#000" opacity=".3" d="M268.772 356.709h15.988v55.96l-15.988 15.988h-15.989l15.989-15.988z"/><path d="M348.714 216.808c0-72.85-59.059-131.906-131.905-131.906S84.903 143.958 84.903 216.808c0 47.958 25.677 89.812 63.954 112.904v26.996H284.76v-26.996c38.278-23.092 63.954-64.946 63.954-112.904z" fill="#E6E9ED"/><g fill="#FFF"><path d="M216.809 84.902c2.701 0 5.348.223 8.002.402-69.107 4.153-123.919 61.351-123.919 131.504 0 71.16 47.965 112.904 47.965 112.904-38.277-23.093-63.954-64.946-63.954-112.904 0-72.85 59.06-131.906 131.906-131.906z"/><path d="M216.817 84.902c-2.701 0-5.348.223-8.002.402 69.107 4.153 123.919 61.351 123.919 131.504 0 71.16-47.966 112.904-47.966 112.904 38.277-23.093 63.954-64.946 63.954-112.904 0-72.85-59.058-131.906-131.905-131.906z"/></g><path d="M180.835 428.657s7.994 15.989 35.975 15.989c27.979 0 35.974-15.989 35.974-15.989h-71.949z" fill="#656D78"/><path d="M196.823 428.657h-15.988s7.994 15.989 35.975 15.989c2.888 0 5.52-.203 7.994-.516-21.501-2.654-27.981-15.473-27.981-15.473z" fill="#FFF" opacity=".4"/><path d="M236.795 428.657h15.988s-7.994 15.989-35.974 15.989c-2.889 0-5.52-.203-7.995-.516 21.501-2.654 27.981-15.473 27.981-15.473z" fill="#000" opacity=".3"/><path fill="#000" opacity=".2" d="M148.857 348.717h135.9v7.994h-135.9z"/><path d="M280.771 180.834a15.931 15.931 0 0 1 15.988 15.989 15.931 15.931 0 0 1-15.988 15.988 11.974 11.974 0 0 1 11.991 11.991c0 4.958-2.959 9.119-7.198 11.031 5.598 10.634 3.92 23.905-4.949 32.781-6.636 6.55-15.59 9.188-24.146 7.831h-.078c-.641 3.833-2.482 7.518-5.441 10.469a19.96 19.96 0 0 1-28.293 0c-3.763-3.833-5.761-8.791-5.839-13.826V148.857a15.932 15.932 0 0 1 15.988-15.989 15.932 15.932 0 0 1 15.988 15.989c0 2.236-.476 4.317-1.28 6.233 3.521-3.115 8.158-4.953 13.271-4.953 11.109 0 19.986 8.873 19.986 19.985 0 4.075-1.202 7.913-3.357 11.031 1.117-.159 2.241-.319 3.357-.319zm-63.954 55.96v36.295c-.078 5.035-1.999 9.993-5.84 13.826a19.96 19.96 0 0 1-28.292 0c-2.959-2.951-4.802-6.636-5.442-10.469h-.078a27.82 27.82 0 0 1-24.062-7.831c-8.876-8.876-10.555-22.147-5.035-32.781-4.239-1.912-7.198-6.073-7.198-11.031a11.974 11.974 0 0 1 11.992-11.991 15.933 15.933 0 0 1-15.989-15.988 15.932 15.932 0 0 1 15.989-15.989c1.202 0 2.319.16 3.357.32-2.155-3.119-3.357-6.956-3.357-11.031 0-11.113 8.955-19.985 19.986-19.985 5.113 0 9.751 1.838 13.271 4.953-.804-1.916-1.28-3.997-1.28-6.233a15.932 15.932 0 0 1 15.989-15.989 15.93 15.93 0 0 1 15.989 15.987v87.937z" fill="#EC87C0"/><path d="M194.114 155.09c-.804-1.916-1.28-3.997-1.28-6.233 0-7.483 5.083-13.662 11.992-15.431-1.28-.328-2.608-.558-3.997-.558a15.933 15.933 0 0 0-15.989 15.989c0 .601.117 1.163.18 1.741 3.442.71 6.565 2.256 9.094 4.492zm-3.435 131.825c-2.959-2.951-4.802-6.636-5.441-10.469h-.078a27.818 27.818 0 0 1-24.061-7.831c-8.876-8.876-10.555-22.147-5.036-32.781-4.239-1.912-7.198-6.073-7.198-11.031a11.975 11.975 0 0 1 11.992-11.991 15.933 15.933 0 0 1-15.989-15.988 15.932 15.932 0 0 1 15.989-15.989c1.203 0 2.319.16 3.357.32-2.154-3.119-3.357-6.956-3.357-11.031a19.936 19.936 0 0 1 15.965-19.583 20.7 20.7 0 0 0-3.974-.402c-11.031 0-19.986 8.873-19.986 19.985 0 4.075 1.202 7.913 3.357 11.031-1.038-.16-2.155-.32-3.357-.32a15.933 15.933 0 0 0-15.989 15.989 15.932 15.932 0 0 0 15.989 15.988 11.975 11.975 0 0 0-11.992 11.991c0 4.958 2.959 9.119 7.198 11.031-5.52 10.634-3.841 23.905 5.035 32.781a27.82 27.82 0 0 0 24.062 7.831h.078c.64 3.833 2.483 7.518 5.442 10.469 4.941 4.949 11.788 6.753 18.143 5.457a19.878 19.878 0 0 1-10.149-5.457zM239.519 155.09c.805-1.916 1.28-3.997 1.28-6.233 0-7.483-5.082-13.662-11.991-15.431 1.28-.328 2.607-.558 3.997-.558a15.932 15.932 0 0 1 15.988 15.989c0 .601-.116 1.163-.179 1.741-3.443.71-6.566 2.256-9.095 4.492zm3.436 131.825c2.959-2.951 4.801-6.636 5.441-10.469h.078a27.819 27.819 0 0 0 24.061-7.831c8.877-8.876 10.555-22.147 5.035-32.781 4.239-1.912 7.198-6.073 7.198-11.031a11.974 11.974 0 0 0-11.991-11.991 15.932 15.932 0 0 0 15.988-15.988 15.932 15.932 0 0 0-15.988-15.989c-1.202 0-2.318.16-3.357.32 2.155-3.119 3.357-6.956 3.357-11.031a19.936 19.936 0 0 0-15.965-19.583 20.689 20.689 0 0 1 3.973-.402c11.031 0 19.986 8.873 19.986 19.985 0 4.075-1.202 7.913-3.357 11.031 1.039-.16 2.155-.32 3.357-.32a15.931 15.931 0 0 1 15.988 15.989 15.931 15.931 0 0 1-15.988 15.988 11.974 11.974 0 0 1 11.991 11.991c0 4.958-2.959 9.119-7.198 11.031 5.52 10.634 3.842 23.905-5.035 32.781a27.818 27.818 0 0 1-24.061 7.831h-.078c-.641 3.833-2.482 7.518-5.441 10.469-4.942 4.949-11.789 6.753-18.144 5.457a19.88 19.88 0 0 0 10.15-5.457z" opacity=".5" fill="#FFF"/><g fill="#3A3847"><path d="M196.831 296.791c-6.401 0-12.428-2.507-16.972-7.05-3.49-3.49-5.762-7.861-6.558-12.632-1.569-7.619.875-15.646 6.558-21.313a3.994 3.994 0 0 1 5.652 0 3.993 3.993 0 0 1 0 5.651c-3.779 3.771-5.402 9.072-4.348 14.193.546 3.271 2.037 6.145 4.348 8.447 6.074 6.074 16.566 6.074 22.64 0 2.943-2.936 4.606-6.87 4.668-11.063.039-2.209 1.858-3.786 4.06-3.935a4.002 4.002 0 0 1 3.935 4.06c-.102 6.285-2.584 12.171-7.011 16.59-4.544 4.545-10.57 7.052-16.972 7.052zm-23.983-102.685c-8.072 0-15.544-4.021-19.97-10.754-2.608-3.775-4.013-8.377-4.013-13.229 0-13.225 10.758-23.982 23.983-23.982 5.925 0 11.577 2.115 15.918 5.957a3.993 3.993 0 0 1 .344 5.644c-1.468 1.647-3.997 1.796-5.637.344-2.881-2.549-6.651-3.95-10.625-3.95-8.814 0-15.989 7.171-15.989 15.988 0 3.225.914 6.25 2.646 8.76 2.998 4.555 7.963 7.229 13.342 7.229a3.995 3.995 0 0 1 3.997 3.998 3.993 3.993 0 0 1-3.996 3.995zm-24.779 45.725a4.098 4.098 0 0 1-1.647-.352c-5.886-2.67-9.548-8.29-9.548-14.677 0-8.821 7.175-15.988 15.989-15.988a3.995 3.995 0 0 1 3.997 3.997 3.995 3.995 0 0 1-3.997 3.997c-4.411 0-7.995 3.591-7.995 7.994 0 3.201 1.858 6.043 4.849 7.386a4.004 4.004 0 0 1 1.998 5.293 4.004 4.004 0 0 1-3.646 2.35z"/><path d="M152.862 216.808c-11.023 0-19.986-8.966-19.986-19.985s8.962-19.986 19.986-19.986c1.421 0 2.74.179 3.966.367a4 4 0 0 1 3.341 4.56c-.336 2.182-2.396 3.669-4.559 3.341-.851-.132-1.764-.273-2.748-.273-6.613 0-11.992 5.379-11.992 11.992 0 6.612 5.379 11.991 11.992 11.991a3.995 3.995 0 0 1 3.997 3.997 3.994 3.994 0 0 1-3.997 3.996zm47.966-47.966c-8.088 0-15.31-4.793-18.401-12.214-1.046-2.51-1.585-5.125-1.585-7.771 0-11.02 8.962-19.986 19.986-19.986 11.023 0 19.986 8.966 19.986 19.986a3.995 3.995 0 0 1-3.997 3.997 3.995 3.995 0 0 1-3.998-3.997c0-6.612-5.379-11.992-11.991-11.992-6.613 0-11.992 5.379-11.992 11.992 0 1.577.328 3.154.968 4.688 1.85 4.442 6.175 7.303 11.023 7.303a3.995 3.995 0 0 1 3.997 3.997 3.992 3.992 0 0 1-3.996 3.997zm-28.003 111.944c-8.361.008-16.527-3.325-22.547-9.345-9.922-9.915-12.233-24.966-5.753-37.45a31.069 31.069 0 0 1 5.761-7.861c12.429-12.443 32.727-12.404 45.218.078a3.994 3.994 0 0 1 0 5.652 3.994 3.994 0 0 1-5.652 0c-9.376-9.368-24.592-9.399-33.921-.078a23.536 23.536 0 0 0-4.31 5.879c-4.871 9.392-3.138 20.681 4.31 28.129 5.395 5.395 13.046 7.916 20.603 6.713 2.131-.374 4.224 1.125 4.583 3.311a4 4 0 0 1-3.318 4.575 31.596 31.596 0 0 1-4.974.397zm63.977 16.005c-6.401 0-12.429-2.507-16.973-7.05-4.434-4.513-6.917-10.398-7.01-16.59a4 4 0 0 1 3.935-4.06c2.264.102 4.028 1.726 4.06 3.935.063 4.13 1.732 8.072 4.699 11.094 6.012 6.012 16.535 6.043 22.609-.031 2.311-2.303 3.802-5.176 4.325-8.307 1.077-5.262-.547-10.563-4.325-14.334a3.993 3.993 0 0 1 0-5.651 3.995 3.995 0 0 1 5.652 0c5.684 5.667 8.127 13.693 6.534 21.453-.772 4.63-3.045 9.001-6.534 12.491-4.543 4.543-10.569 7.05-16.972 7.05zm23.983-102.685a3.994 3.994 0 0 1-3.996-3.997 3.994 3.994 0 0 1 3.996-3.998 15.84 15.84 0 0 0 13.288-7.155c1.788-2.584 2.701-5.609 2.701-8.834 0-8.966-7.026-15.988-15.989-15.988-3.973 0-7.744 1.401-10.625 3.95a4.006 4.006 0 0 1-5.637-.344 3.994 3.994 0 0 1 .344-5.644c4.341-3.841 9.993-5.957 15.918-5.957 13.226 0 23.983 10.758 23.983 23.982 0 4.853-1.405 9.455-4.067 13.303-4.372 6.662-11.843 10.682-19.916 10.682zm24.779 45.725a4.005 4.005 0 0 1-3.646-2.35 4.004 4.004 0 0 1 1.999-5.293c2.99-1.343 4.848-4.185 4.848-7.386 0-4.403-3.583-7.994-7.994-7.994a3.995 3.995 0 0 1-3.997-3.997 3.995 3.995 0 0 1 3.997-3.997c8.814 0 15.988 7.167 15.988 15.988 0 6.387-3.661 12.007-9.548 14.677-.519.23-1.08.35-1.647.352z"/><path d="M280.771 216.808a3.995 3.995 0 0 1-3.997-3.997 3.995 3.995 0 0 1 3.997-3.997c6.612 0 11.991-5.379 11.991-11.991 0-6.613-5.379-11.992-11.991-11.992-.929 0-1.858.148-2.787.281-2.146.305-4.216-1.198-4.528-3.392a3.998 3.998 0 0 1 3.389-4.524c1.304-.188 2.623-.359 3.927-.359 11.023 0 19.985 8.966 19.985 19.986 0 11.02-8.962 19.985-19.986 19.985zm-47.966-47.966a3.994 3.994 0 0 1-3.997-3.997 3.994 3.994 0 0 1 3.997-3.997c4.849 0 9.173-2.861 11.016-7.295.647-1.542.976-3.119.976-4.696 0-6.612-5.379-11.992-11.991-11.992s-11.991 5.379-11.991 11.992a3.995 3.995 0 0 1-3.997 3.997 3.995 3.995 0 0 1-3.998-3.997c0-11.02 8.962-19.986 19.986-19.986 11.024 0 19.985 8.966 19.985 19.986 0 2.646-.538 5.262-1.592 7.779-3.084 7.413-10.306 12.206-18.394 12.206zm28.12 111.952c-1.686 0-3.38-.125-5.082-.405a3.996 3.996 0 0 1-3.326-4.575c.344-2.178 2.444-3.685 4.575-3.311 7.581 1.172 15.153-1.248 20.712-6.736 7.44-7.44 9.143-18.729 4.224-28.066-1.054-2.186-2.459-4.138-4.239-5.918-9.329-9.321-24.545-9.282-33.921.078a3.994 3.994 0 0 1-5.652 0 3.995 3.995 0 0 1 0-5.652c12.499-12.49 32.789-12.521 45.226-.078 2.412 2.42 4.341 5.099 5.723 7.963 6.495 12.336 4.224 27.395-5.723 37.349-6.161 6.072-14.155 9.351-22.517 9.351zm7.855 151.861H164.854a3.991 3.991 0 0 1-2.826-1.172l-15.989-15.988a3.994 3.994 0 0 1-1.171-2.826v-55.96a3.994 3.994 0 0 1 3.997-3.997 3.995 3.995 0 0 1 3.998 3.997v54.305l13.646 13.646h100.616l13.646-13.646v-54.305a3.994 3.994 0 0 1 3.997-3.997 3.994 3.994 0 0 1 3.997 3.997v55.96c0 1.06-.421 2.077-1.171 2.826l-15.988 15.988a3.995 3.995 0 0 1-2.826 1.172z"/><path d="M140.871 384.688a3.989 3.989 0 0 1-3.989-3.794 4 4 0 0 1 3.794-4.2l7.995-.391 143.897-7.604c2.21-.133 4.083 1.601 4.185 3.795a3.999 3.999 0 0 1-3.794 4.199l-7.994.391-143.897 7.604h-.197zm0 23.983a3.99 3.99 0 0 1-3.989-3.794 4 4 0 0 1 3.794-4.2l7.995-.391 143.897-7.604c2.21-.07 4.083 1.601 4.185 3.794a4 4 0 0 1-3.794 4.2l-7.994.39-143.897 7.604-.197.001zm143.897-47.965H148.865a3.995 3.995 0 0 1-3.997-3.997V331.93c-40.096-25.076-63.954-67.936-63.954-115.121 0-74.938 60.964-135.903 135.903-135.903 74.938 0 135.902 60.964 135.902 135.903 0 47.186-23.857 90.045-63.954 115.121v24.779a3.994 3.994 0 0 1-3.997 3.997zm-131.906-7.994h127.909V329.69c0-1.397.734-2.693 1.928-3.428 38.84-23.429 62.026-64.345 62.026-109.453 0-70.527-57.381-127.908-127.908-127.908-70.528 0-127.909 57.381-127.909 127.908 0 45.108 23.187 86.024 62.026 109.453a4.03 4.03 0 0 1 1.928 3.428v23.022zm63.955 95.931c-30.104 0-39.176-17.457-39.55-18.198a3.998 3.998 0 0 1 1.788-5.363c1.976-.968 4.356-.195 5.348 1.757.312.601 7.573 13.811 32.415 13.811 24.88 0 32.117-13.249 32.414-13.818 1.022-1.937 3.419-2.717 5.371-1.718 1.952.999 2.748 3.372 1.765 5.332-.376.74-9.447 18.197-39.551 18.197z"/><path d="M216.817 277.086a3.995 3.995 0 0 1-3.998-3.997V148.857a3.995 3.995 0 0 1 3.998-3.997 3.995 3.995 0 0 1 3.997 3.997v124.231a3.996 3.996 0 0 1-3.997 3.998z"/><path d="M228.808 248.786c-10.344 0-15.356-9.79-15.567-10.204-.983-1.975-.187-4.38 1.788-5.363 1.983-.968 4.356-.195 5.355 1.765.063.125 3.092 5.809 8.424 5.809a3.994 3.994 0 0 1 3.997 3.997 3.995 3.995 0 0 1-3.997 3.996z"/><path d="M204.825 248.786a3.995 3.995 0 0 1-3.997-3.997 3.994 3.994 0 0 1 3.997-3.997c5.363 0 8.4-5.746 8.431-5.809a3.989 3.989 0 0 1 5.364-1.741 3.984 3.984 0 0 1 1.771 5.34c-.21.414-5.221 10.204-15.566 10.204zm31.977-47.966c-18.971 0-23.983-13.073-23.983-19.986a3.998 3.998 0 0 1 7.995-.027c.023 1.269.694 12.019 15.988 12.019a3.995 3.995 0 0 1 3.997 3.997 3.995 3.995 0 0 1-3.997 3.997z"/><path d="M196.831 200.82a3.995 3.995 0 0 1-3.997-3.997 3.995 3.995 0 0 1 3.997-3.997c15.81 0 15.989-11.504 15.989-11.992a3.995 3.995 0 0 1 3.998-3.997 3.995 3.995 0 0 1 3.997 3.997c-.001 6.913-5.013 19.986-23.984 19.986z"/></g></g></svg>